<?xml version="1.0" encoding="UTF-8"?>
<svg width="140px" height="24px" viewBox="0 0 140 24" version="1.1" xmlns="http://www.w3.org/2000/svg" xmlns:xlink="http://www.w3.org/1999/xlink">
    <!-- Generator: Sketch 47.1 (45422) - http://www.bohemiancoding.com/sketch -->
    <title>iPlayer + BBC</title>
    <desc>Created with Sketch.</desc>
    <defs>
        <polygon id="path-1" points="0 0.000220679012 72.4828395 0.000220679012 72.4828395 23.7143873 0 23.7143873"></polygon>
        <polygon id="path-3" points="4.32098766e-05 0.00021566358 72.4828827 0.00021566358 72.4828827 23.175424 4.32098766e-05 23.175424"></polygon>
        <polygon id="path-5" points="0 0 59.4822816 0 59.4822816 17.3047843 0 17.3047843"></polygon>
    </defs>
    <g id="Carousels" stroke="none" stroke-width="1" fill="none" fill-rule="evenodd">
        <g id="Mobile_Home_Carousel_SingleRow" transform="translate(-118.000000, -34.000000)">
            <g id="Menu" transform="translate(0.000000, 24.000000)">
                <g id="iPlayer-+-BBC" transform="translate(118.000000, 10.000000)">
                    <g id="iPlayer" transform="translate(66.818139, 0.087694)">
                        <g id="Group-3" transform="translate(0.000043, 0.002703)">
                            <mask id="mask-2" fill="white">
                                <use xlink:href="#path-1"></use>
                            </mask>
                            <g id="Clip-2"></g>
                            <path d="M54.3726728,9.82992593 C54.4698951,8.32886728 55.2299568,7.10498148 56.8200802,7.10498148 C58.5843395,7.10498148 59.2683519,8.32886728 59.2683519,9.82992593 L54.3726728,9.82992593 Z M32.2859444,14.8825926 C31.2571173,14.8825926 30.4741543,14.3587006 30.4741543,13.4578889 C30.4741543,12.2066389 31.649463,11.7304136 33.1432284,11.7304136 C33.8039074,11.7304136 34.4403889,11.7811698 35.0038457,11.803679 C35.0038457,13.3294537 33.9516852,14.8825926 32.2859444,14.8825926 L32.2859444,14.8825926 Z M15.1661914,8.66165123 L13.9822407,8.66165123 L13.9822407,3.34637654 L15.1661914,3.34637654 C16.7403272,3.34637654 17.9973025,4.19334259 17.9973025,5.97951852 C17.9973025,7.81380247 16.7403272,8.66165123 15.1661914,8.66165123 L15.1661914,8.66165123 Z M51.1254506,6.87150309 L52.0190309,4.55304938 L47.6124877,4.55304938 L44.9926728,13.0562531 L44.9442778,13.0562531 L42.2030432,4.55304938 L37.4525494,4.55304938 L38.0743395,6.15606173 L38.0289691,6.17548148 C36.9150185,4.80771296 35.0673642,4.25336728 33.0464383,4.25336728 C31.1598951,4.25336728 30.1660679,4.49170062 28.5150185,4.96218827 C28.5150185,4.96218827 27.5294012,7.9943179 27.484463,8.12540123 C27.4356358,8.26972531 27.5773642,8.42199383 27.7225494,8.35049383 C28.8568086,7.79703086 30.2788457,7.25460185 32.0902037,7.25460185 C33.6811914,7.25460185 34.9796481,7.72906173 35.0038457,9.50641049 C34.4403889,9.40578086 33.6565617,9.33030864 32.948784,9.33030864 C31.0790926,9.33030864 28.018537,9.63396296 26.8449568,11.7591019 L26.7952654,11.7577778 L26.7952654,0 L22.3887222,0 L22.3887222,4.14523457 L22.3373025,4.14655864 C21.6156975,1.44015123 19.2019938,0 14.8823025,0 L9.41495679,0 L9.40156173,4.66780247 L11.2673642,8.31253704 C11.5465,8.59765432 11.5931667,8.91410802 11.2902654,9.23056173 L9.40156173,12.9322315 L9.40156173,17.582821 L13.9822407,17.582821 L13.9822407,11.9806636 L15.7555741,11.9806636 C19.2923025,11.9806636 21.6303889,10.3555833 22.3416235,7.79703086 L22.3887222,7.79791358 L22.3887222,17.582821 L26.7952654,17.582821 L26.7952654,15.7692809 L26.8449568,15.7692809 C27.6374259,17.1878056 29.3161296,17.8339537 31.1356975,17.8829444 C33.3635988,17.9447346 34.5661296,16.8254506 35.0284753,16.5248858 C35.1753889,16.4299938 35.2389074,16.4149877 35.2484136,16.5429815 C35.2760679,16.9075432 35.3140926,17.3007932 35.3231667,17.582821 L39.3619938,17.582821 C39.165821,16.5588704 39.1165617,15.5322716 39.1165617,14.5074383 L39.1165617,9.65470679 C39.1165617,9.37974074 39.0979815,9.12198765 39.0716235,8.87394444 L39.1191543,8.85452469 L42.6191543,17.8829444 C42.6191543,17.8829444 42.0340926,19.8937716 40.2080432,19.8937716 C39.4561914,19.8937716 38.9722407,19.7812253 38.2847716,19.448 C38.1776111,19.399892 38.0687222,19.4568272 38.0315617,19.5715802 L36.9655741,22.8729383 C37.6011914,23.195571 39.1800802,23.7141667 40.8799568,23.7141667 C44.5947099,23.7141667 46.235821,19.5534846 47.3419938,16.682892 L50.0076111,9.76990123 L50.0560062,9.79108642 C49.9976728,10.1936049 49.9661296,10.6155432 49.9661296,11.0551358 C49.9661296,15.3579352 53.1735988,17.8829444 57.3848333,17.8829444 C58.6582284,17.8829444 60.0811296,17.6499074 61.1484136,17.2288519 C61.1484136,17.2288519 62.0432901,14.5220031 62.2295247,13.9508858 C62.2930432,13.7535988 62.1050802,13.6529691 61.9832284,13.7222623 C60.8904506,14.3432531 59.6231049,14.8825926 58.1677963,14.8825926 C56.013784,14.8825926 54.6665,14.180392 54.4215,12.3822994 L62.9502654,12.3822994 L62.9502654,17.582821 L67.3568086,17.582821 L67.3568086,12.0817346 C67.3568086,9.23056173 68.8505741,8.00491049 70.5781049,8.00491049 C71.0015617,8.00491049 71.3243395,8.13952469 71.3243395,8.13952469 L72.4745864,4.60424691 C72.5039691,4.50008642 72.4560062,4.3919537 72.3354506,4.37076852 C71.9396481,4.3089784 71.483784,4.25336728 71.0465,4.25336728 C69.1366235,4.25336728 67.7720556,5.30335802 67.0132901,6.95580247 L66.964463,6.95580247 L66.964463,4.55304938 L62.9502654,4.55304938 L62.9502654,8.83025 L62.9005741,8.82804321 C62.2061914,6.20593519 60.3619938,4.25336728 56.7963148,4.25336728 C54.3769938,4.25336728 52.3690309,5.18639815 51.1699568,6.89004012 L51.1254506,6.87150309 Z" id="Fill-1" fill="#F44996" mask="url(#mask-2)"></path>
                        </g>
                        <g id="Group-6">
                            <mask id="mask-4" fill="white">
                                <use xlink:href="#path-3"></use>
                            </mask>
                            <g id="Clip-5"></g>
                            <polygon id="Fill-4" fill="#F44996" mask="url(#mask-4)" points="4.3032716 0 0 0 0 4.29601852 4.3032716 4.29601852 4.3032716 2.53577238 11.2868519 8.59117438 4.3032716 14.647439 4.3032716 6.44402778 0 6.44402778 0 17.1832114 4.3032716 17.1832114 13.9866049 8.59117438"></polygon>
                        </g>
                    </g>
                    <g id="BBC">
                        <mask id="mask-6" fill="white">
                            <use xlink:href="#path-5"></use>
                        </mask>
                        <g id="Clip-2"></g>
                        <path d="M41.4799287,17.3047843 L59.4822816,17.3047843 L59.4822816,0 L41.4799287,0 L41.4799287,17.3047843 Z M55.908164,13.9135686 C55.8672371,13.933451 55.8278075,13.9507843 55.7883779,13.9706667 C55.6955437,14.0170588 55.6032086,14.0639608 55.5143672,14.1037255 C55.4180392,14.1506275 55.3197148,14.1929412 55.2313725,14.2347451 C55.0826381,14.2989804 54.953369,14.3509804 54.8440642,14.3938039 C54.7612121,14.4264314 54.6928342,14.453451 54.6429234,14.4697647 L54.5381105,14.508 C54.4337968,14.5447059 54.3214973,14.5819216 54.2062032,14.6176078 C54.1098752,14.6466667 54.0070588,14.6757255 53.9047415,14.7047843 C53.7649911,14.744549 53.617754,14.7827843 53.4620321,14.8159216 C53.3622103,14.8383529 53.2603922,14.8577255 53.1530838,14.8776078 C52.9868806,14.9087059 52.8077005,14.9341961 52.6235294,14.9586667 C52.5017469,14.9739608 52.3769697,14.9882353 52.2491979,14.9984314 L52.1838146,15.0060784 C51.8603922,15.0341176 51.5100178,15.0494118 51.1316934,15.0494118 C51.0832799,15.0494118 51.0323708,15.0453333 50.9834581,15.0453333 C50.8791444,15.0432941 50.7753298,15.0407451 50.6720143,15.0341176 C50.4608913,15.0234118 50.2562567,15.0060784 50.0581105,14.978549 C49.8624599,14.9576471 49.670303,14.926549 49.486631,14.8918824 C49.2580392,14.846 49.0404278,14.7919608 48.8332977,14.7333333 C48.7120143,14.692549 48.5927273,14.6558431 48.4804278,14.6160784 C48.3631373,14.5763137 48.2523351,14.5334902 48.1435294,14.4901569 C47.8555437,14.3723922 47.5920143,14.242902 47.3564349,14.1072941 C47.2351515,14.0354118 47.1218538,13.967098 47.0155437,13.8962353 C46.9132264,13.829451 46.8178966,13.7621569 46.7260606,13.6938431 C46.6506952,13.6403137 46.5803209,13.5801569 46.5109447,13.525098 C46.4370766,13.4674902 46.3677005,13.4068235 46.3038146,13.3507451 C46.2069875,13.2681569 46.122139,13.1835294 46.0462745,13.1080784 L45.9943672,13.0591373 C45.9010339,12.9622745 45.8042068,12.8608235 45.708877,12.7456078 C45.6320143,12.6563922 45.5536542,12.5620784 45.4767914,12.4636863 C45.4049198,12.3678431 45.332549,12.2679216 45.2616756,12.1639216 C45.2077718,12.0818431 45.1553654,12.0048627 45.1034581,11.9207451 C45.0405704,11.8152157 44.9786809,11.705098 44.9182888,11.5919216 C44.8159715,11.4007451 44.7211408,11.1973333 44.6342959,10.9872941 C44.5783957,10.8542353 44.5294831,10.7160784 44.4825668,10.5753725 C44.4446346,10.4606667 44.4111943,10.3459608 44.3807487,10.2225882 C44.3537968,10.1333725 44.3348307,10.0421176 44.3148663,9.94627451 C44.3058824,9.90141176 44.2968984,9.85807843 44.2874153,9.81117647 C44.2664528,9.6985098 44.248984,9.58482353 44.2360071,9.46756863 L44.2270232,9.40078431 C44.2155437,9.29933333 44.208057,9.19992157 44.2020677,9.10203922 C44.1945811,9.00313725 44.194082,8.90882353 44.194082,8.80839216 C44.194082,8.67533333 44.2000713,8.54533333 44.2070588,8.41941176 C44.2155437,8.25117647 44.2330125,8.08701961 44.2534759,7.92643137 C44.3198574,7.41866667 44.4426381,6.93843137 44.611836,6.48980392 C44.7460963,6.13090196 44.910303,5.79698039 45.0999643,5.48345098 C45.1314082,5.43043137 45.1618538,5.37639216 45.1982888,5.32439216 C45.245205,5.24843137 45.295615,5.1734902 45.3480214,5.09905882 C45.4178966,5.00015686 45.4912656,4.90329412 45.5656328,4.81 C45.6340107,4.72180392 45.7063815,4.63972549 45.7802496,4.55509804 C45.8531194,4.47403922 45.9264884,4.39705882 46.0013547,4.31905882 C46.089697,4.22984314 46.1825312,4.14266667 46.277861,4.0554902 C46.3816756,3.96219608 46.4909804,3.87145098 46.6072727,3.78019608 C46.6596791,3.73992157 46.7155793,3.69658824 46.7734759,3.65682353 C46.8363636,3.60788235 46.9027451,3.55996078 46.9731194,3.51407843 C47.09041,3.43505882 47.2126916,3.35807843 47.3419608,3.28058824 C47.4737255,3.20309804 47.6119786,3.12815686 47.7552228,3.05729412 C47.9269162,2.97266667 48.1060963,2.89160784 48.2942602,2.81615686 C48.6596078,2.67137255 49.0544029,2.5474902 49.4826381,2.45623529 C49.551016,2.44094118 49.6203922,2.42666667 49.6917647,2.41443137 C49.7426738,2.40372549 49.7965775,2.39556863 49.8469875,2.38639216 L49.9672727,2.3654902 L50.0636007,2.35070588 L50.1489483,2.34 C50.2547594,2.32521569 50.3595722,2.314 50.4668806,2.30431373 C50.5397504,2.29819608 50.6146168,2.29258824 50.6874866,2.28596078 C50.8172549,2.27984314 50.9505169,2.27219608 51.0862745,2.27015686 C51.1601426,2.26862745 51.1995722,2.26658824 51.2749376,2.26658824 C51.437148,2.26658824 51.6053476,2.27219608 51.7755437,2.28239216 C51.8723708,2.28901961 51.9672014,2.29411765 52.0630303,2.30431373 C52.203779,2.31858824 52.3445276,2.33337255 52.4807843,2.3527451 L52.5791087,2.36752941 C52.6624599,2.38078431 52.7428164,2.39556863 52.8211765,2.40780392 C52.9160071,2.42666667 53.0128342,2.44552941 53.1066667,2.46337255 C53.1970053,2.48376471 53.2898396,2.50364706 53.3761854,2.52403922 C53.434082,2.53627451 53.4879857,2.55105882 53.5418895,2.56278431 C53.6257398,2.58521569 53.7100891,2.60713725 53.791943,2.63058824 C53.8603209,2.64996078 53.929697,2.66933333 53.9980749,2.68768627 L54.0594652,2.70603922 C54.1283422,2.72694118 54.1977184,2.74682353 54.265098,2.76823529 C54.3564349,2.7952549 54.4457754,2.82839216 54.5321212,2.85643137 C54.608984,2.87988235 54.6843494,2.90690196 54.7557219,2.93188235 C54.8460606,2.964 54.9299109,2.99458824 55.0092692,3.02313725 C55.1560071,3.07666667 55.2817825,3.12611765 55.3925847,3.16690196 C55.6356506,3.26121569 55.7768984,3.31984314 55.7768984,3.31984314 L55.7768984,5.63894118 L55.5418182,5.50792157 C55.4544742,5.46 55.3461676,5.39627451 55.2218895,5.3305098 C55.1485205,5.29329412 55.0711586,5.25301961 54.9878075,5.21019608 C54.888984,5.1607451 54.7826738,5.10772549 54.6723708,5.0572549 C54.5366132,4.99403922 54.3968627,4.92827451 54.2496257,4.86811765 C54.1413191,4.82478431 54.0295187,4.77890196 53.9157219,4.73709804 C53.9157219,4.73709804 53.8433512,4.70956863 53.7165775,4.66470588 C53.6417112,4.63972549 53.5473797,4.60811765 53.4360784,4.57396078 C53.3622103,4.5505098 53.2803565,4.52654902 53.1900178,4.50411765 C53.0567558,4.46639216 52.9020321,4.43019608 52.7383244,4.39603922 C52.631016,4.37462745 52.5157219,4.35423529 52.396934,4.33486275 C52.2646702,4.31498039 52.1244207,4.29560784 51.9781818,4.28133333 C51.9023173,4.27368627 51.822959,4.27062745 51.745098,4.26552941 C51.630303,4.25737255 51.5135116,4.25380392 51.3947237,4.25176471 C51.3413191,4.24921569 51.2884135,4.24921569 51.2335116,4.24921569 C51.0732977,4.24921569 50.9055971,4.25584314 50.7378966,4.27062745 C50.6510517,4.27929412 50.5622103,4.28745098 50.4738681,4.30172549 C50.3855258,4.31243137 50.2941889,4.32670588 50.2058467,4.34352941 C50.1264884,4.35984314 50.0441355,4.37462745 49.9617825,4.39501961 C49.8824242,4.41541176 49.7980749,4.43427451 49.7182175,4.45772549 C49.633369,4.48219608 49.546025,4.50768627 49.4626738,4.53623529 C49.38082,4.56580392 49.3024599,4.59333333 49.2270945,4.62545098 C49.1477362,4.65756863 49.0703743,4.68764706 48.9940107,4.72435294 C48.5003922,4.9527451 48.0242424,5.27901961 47.6009982,5.70929412 C47.5740463,5.73886275 47.5445989,5.76996078 47.5181462,5.798 C47.4632442,5.85764706 47.4128342,5.92086275 47.3624242,5.98203922 C47.3249911,6.02843137 47.2890553,6.07686275 47.2546168,6.1227451 C47.1557932,6.25529412 47.0694474,6.38835294 46.9935829,6.52294118 C46.9611408,6.58564706 46.9262032,6.64529412 46.8957576,6.70494118 C46.856328,6.786 46.8178966,6.86501961 46.7834581,6.94607843 C46.7585027,7.0067451 46.7335472,7.06435294 46.7130838,7.12145098 C46.6811408,7.20862745 46.6506952,7.29223529 46.6252406,7.37635294 C46.5982888,7.47117647 46.5738324,7.55784314 46.5528699,7.64552941 C46.5219251,7.77960784 46.4994652,7.90858824 46.4809982,8.02380392 C46.4535472,8.21854902 46.4435651,8.39137255 46.438574,8.52596078 C46.4370766,8.58152941 46.4350802,8.63047059 46.4350802,8.67533333 C46.4350802,8.73956863 46.4370766,8.82164706 46.4420677,8.9174902 C46.4435651,8.97968627 46.448057,9.0474902 46.4550446,9.12192157 C46.4725134,9.31360784 46.5049554,9.53894118 46.5643494,9.78313725 C46.5863102,9.87031373 46.6087701,9.95952941 46.6377184,10.0467059 C46.6736542,10.160902 46.7155793,10.2812157 46.764492,10.3994902 C46.7944385,10.4688235 46.8248841,10.5391765 46.86082,10.6085098 C46.9007487,10.6900784 46.943672,10.7747059 46.9915865,10.8578039 C47.0240285,10.9133725 47.0554724,10.972 47.0914082,11.0255294 C47.1298396,11.0836471 47.1682709,11.1432941 47.2101961,11.1973333 C47.2541176,11.260549 47.3000357,11.3222353 47.3484492,11.3808627 C47.4342959,11.4863922 47.5306239,11.5919216 47.6329412,11.6984706 L47.6618895,11.7244706 L47.6848485,11.7453725 L47.7227807,11.7856471 L47.7986453,11.856 C47.852549,11.902902 47.9164349,11.957451 47.9803209,12.006902 C48.0447059,12.0578824 48.1115865,12.1068235 48.1779679,12.1557647 C48.2328699,12.194 48.2882709,12.2301961 48.3411765,12.2679216 C48.3980749,12.3020784 48.4524777,12.3347059 48.5048841,12.3658039 C48.6156863,12.428 48.7264884,12.4886667 48.8402852,12.5406667 C48.8921925,12.5656471 48.9445989,12.5901176 49,12.6145882 C49.0304456,12.6273333 49.0623886,12.6395686 49.0938324,12.6533333 C49.1417469,12.6737255 49.1901604,12.6910588 49.2395722,12.7094118 C49.5679857,12.8332941 49.9023886,12.919451 50.2362923,12.9775686 C50.4439216,13.0117255 50.6495544,13.0356863 50.8511943,13.0489412 C51.0208913,13.0627059 51.18959,13.0667843 51.354795,13.0667843 C51.4291622,13.0667843 51.5100178,13.0632157 51.5993583,13.0591373 C51.7346168,13.054549 51.8833512,13.0453725 52.0435651,13.026 C52.1463815,13.0158039 52.2551872,13.0005098 52.3674866,12.9836863 C52.4144029,12.9775686 52.4633155,12.9673725 52.5122282,12.9581961 C52.9190018,12.8878431 53.3826738,12.7700784 53.883779,12.5834902 C54.150303,12.4856078 54.4238146,12.3714118 54.7093048,12.2327451 C54.8720143,12.1557647 55.0337255,12.0680784 55.2024242,11.9773333 C55.3566488,11.8927059 55.5078788,11.8004314 55.6660963,11.7010196 L55.8253119,11.6031373 C55.8522638,11.5878431 55.880713,11.5715294 55.908164,11.5536863 L55.908164,13.9135686 Z M30.2225312,12.9209804 C30.0987522,12.9337255 29.9954367,12.9362745 29.9220677,12.9393333 C29.8521925,12.9403529 29.8082709,12.9418824 29.8082709,12.9418824 L27.6461319,12.9418824 L27.6461319,9.5425098 C27.6461319,9.5425098 28.9687701,9.54352941 29.7378966,9.54352941 C29.8127629,9.54352941 29.8916221,9.54556863 29.9654902,9.55066667 C30.0508378,9.55729412 30.1331907,9.56035294 30.2115508,9.56952941 C30.3473084,9.58329412 30.4765775,9.60266667 30.5968627,9.62509804 C30.8374332,9.67047059 31.0540463,9.73419608 31.2486988,9.82188235 C31.3949376,9.88713725 31.5306952,9.96207843 31.648984,10.0507843 C31.7198574,10.1043137 31.7842424,10.1619216 31.8431373,10.2225882 C31.8745811,10.2511373 31.8995365,10.2847843 31.9269875,10.3209804 C32.062246,10.4887059 32.1391087,10.6758039 32.1805348,10.839451 C32.2149733,10.9750588 32.2209626,11.1025098 32.2224599,11.1667451 C32.2254545,11.2197647 32.2254545,11.2478039 32.2254545,11.2478039 C32.2254545,11.2478039 32.2254545,11.2916471 32.218467,11.359451 C32.2109804,11.5149412 32.1675579,11.7948235 31.9988592,12.0660392 C31.9454545,12.1491373 31.8810695,12.2317255 31.8042068,12.3138039 C31.6035651,12.5167059 31.3375401,12.6563922 31.0665241,12.7512157 C30.7660606,12.8557255 30.4571123,12.8990588 30.2225312,12.9209804 L30.2225312,12.9209804 Z M28.693262,7.59505882 L27.6461319,7.59505882 L27.6461319,4.37105882 L29.0895544,4.37105882 C29.1853832,4.37105882 29.2971836,4.37411765 29.4204635,4.38380392 C29.7044563,4.40470588 30.0413547,4.45517647 30.3378253,4.58823529 C30.4890553,4.65756863 30.6322995,4.74780392 30.7490909,4.86760784 C30.8479144,4.9654902 30.9187879,5.06541176 30.9721925,5.17247059 C31.0795009,5.38964706 31.1084492,5.62007843 31.1174332,5.75976471 C31.1189305,5.84286275 31.1189305,5.89537255 31.1189305,5.89537255 C31.1189305,5.89537255 31.1189305,5.96827451 31.1084492,6.07839216 C31.0989661,6.20329412 31.0725134,6.37968627 30.997148,6.56423529 C30.9372549,6.71513725 30.8469162,6.86909804 30.708164,7.00980392 C30.5324777,7.18517647 30.3098752,7.30803922 30.0767914,7.39470588 C30.0188948,7.41560784 29.96,7.43243137 29.9021034,7.45027451 C29.6036364,7.53490196 29.3051693,7.5654902 29.0920499,7.58129412 C29.0146881,7.58486275 28.9283422,7.58996078 28.8569697,7.59352941 C28.7631373,7.59505882 28.693262,7.59505882 28.693262,7.59505882 L28.693262,7.59505882 Z M20.7409626,17.3047843 L38.74082,17.3047843 L38.74082,0 L20.7409626,0 L20.7409626,17.3047843 Z M25.4620321,2.42666667 L29.4219608,2.42666667 C31.5531551,2.42666667 32.4949733,3.56556863 32.4949733,3.56556863 C32.4949733,3.56556863 33.3579323,4.32670588 33.3579323,5.64862745 C33.3579323,6.96290196 32.7719786,7.50227451 32.6062745,7.6705098 C32.254902,8.02941176 31.7987166,8.24862745 31.7987166,8.24862745 C31.7987166,8.24862745 32.8119073,8.46631373 33.6064884,9.27537255 C34.5373262,10.2271765 34.4639572,11.4705882 34.4639572,11.4705882 C34.4639572,11.4705882 34.5373262,12.6599608 33.5301248,13.6861961 C32.2938324,14.9515294 30.0548307,14.8898431 30.0548307,14.8898431 L25.4620321,14.8898431 L25.4620321,2.42666667 Z M9.48206774,12.9209804 C9.35828877,12.9337255 9.25297683,12.9362745 9.18110517,12.9393333 C9.11023173,12.9403529 9.06780749,12.9418824 9.06780749,12.9418824 L6.90516934,12.9418824 L6.90516934,9.5425098 C6.90516934,9.5425098 8.22930481,9.54352941 8.99693405,9.54352941 C9.07379679,9.54352941 9.15065954,9.54556863 9.22402852,9.55066667 C9.31037433,9.55729412 9.39073084,9.56035294 9.47358289,9.56952941 C9.6058467,9.58329412 9.73511586,9.60266667 9.85839572,9.62509804 C10.0969697,9.67047059 10.3135829,9.73419608 10.5077362,9.82188235 C10.6554724,9.88713725 10.7887344,9.96207843 10.9085205,10.0507843 C10.9783957,10.1043137 11.043779,10.1619216 11.1026738,10.2225882 C11.1336185,10.2511373 11.1600713,10.2847843 11.1855258,10.3209804 C11.3207843,10.4887059 11.3976471,10.6758039 11.438574,10.839451 C11.4725134,10.9750588 11.4804991,11.1025098 11.4834938,11.1667451 C11.4849911,11.2197647 11.4834938,11.2478039 11.4834938,11.2478039 C11.4834938,11.2478039 11.4834938,11.2916471 11.4780036,11.359451 C11.4685205,11.5149412 11.4260963,11.7948235 11.2563993,12.0660392 C11.2054902,12.1491373 11.1406061,12.2317255 11.0627451,12.3138039 C10.8606061,12.5167059 10.5975758,12.6563922 10.3250624,12.7512157 C10.0260963,12.8557255 9.71664884,12.8990588 9.48206774,12.9209804 L9.48206774,12.9209804 Z M7.95130125,7.59505882 L6.90516934,7.59505882 L6.90516934,4.37105882 L8.34959002,4.37105882 C8.44342246,4.37105882 8.55572193,4.37411765 8.68049911,4.38380392 C8.96349376,4.40470588 9.30089127,4.45517647 9.59636364,4.58823529 C9.74809269,4.65756863 9.8913369,4.74780392 10.0101248,4.86760784 C10.1064528,4.9654902 10.1783244,5.06541176 10.2312299,5.17247059 C10.3400357,5.38964706 10.3674866,5.62007843 10.3754724,5.75976471 C10.3789661,5.84286275 10.3774688,5.89537255 10.3774688,5.89537255 C10.3774688,5.89537255 10.3774688,5.96827451 10.3674866,6.07839216 C10.3575045,6.20329412 10.3320499,6.37968627 10.2576827,6.56423529 C10.1962923,6.71513725 10.1064528,6.86909804 9.96670232,7.00980392 C9.79201426,7.18517647 9.56941176,7.30803922 9.33632799,7.39470588 C9.27793226,7.41560784 9.21803922,7.43243137 9.16163993,7.45027451 C8.86417112,7.53490196 8.56470588,7.5654902 8.34959002,7.58129412 C8.27272727,7.58486275 8.18688057,7.58996078 8.1145098,7.59352941 C8.0226738,7.59505882 7.95130125,7.59505882 7.95130125,7.59505882 L7.95130125,7.59505882 Z M0,17.3047843 L17.9993583,17.3047843 L17.9993583,0 L0,0 L0,17.3047843 Z M4.72206774,2.42666667 L8.68199643,2.42666667 C10.8121925,2.42666667 11.7570053,3.56556863 11.7570053,3.56556863 C11.7570053,3.56556863 12.618467,4.32670588 12.618467,5.64862745 C12.618467,6.96290196 12.0305169,7.50227451 11.8678075,7.6705098 C11.5139394,8.02941176 11.0567558,8.24862745 11.0567558,8.24862745 C11.0567558,8.24862745 12.0704456,8.46631373 12.8645276,9.27537255 C13.797861,10.2271765 13.7239929,11.4705882 13.7239929,11.4705882 C13.7239929,11.4705882 13.797861,12.6599608 12.7891622,13.6861961 C11.5528699,14.9515294 9.3143672,14.8898431 9.3143672,14.8898431 L4.72206774,14.8898431 L4.72206774,2.42666667 Z" id="Fill-1" fill="#EEEEEE" mask="url(#mask-6)"></path>
                    </g>
                </g>
            </g>
        </g>
    </g>
</svg>