<?xml version="1.0" encoding="UTF-8"?>
<svg width="20px" height="20px" viewBox="0 0 20 20" version="1.1" xmlns="http://www.w3.org/2000/svg" xmlns:xlink="http://www.w3.org/1999/xlink">
    <!-- Generator: Sketch 47.1 (45422) - http://www.bohemiancoding.com/sketch -->
    <title>search</title>
    <desc>Created with Sketch.</desc>
    <defs></defs>
    <g id="Carousels" stroke="none" stroke-width="1" fill="none" fill-rule="evenodd">
        <g id="Mobile_Home_Carousel_DoubleRow" transform="translate(-339.000000, -38.000000)" fill="#FFFFFF">
            <g id="Menu" transform="translate(0.000000, 24.000000)">
                <g id="search" transform="translate(339.000000, 14.000000)">
                    <path d="M8.12421875,0 C6.04546875,0 3.96546875,0.79375 2.37984375,2.38 C-0.79328125,5.55375 -0.79328125,10.6975 2.37984375,13.87 C3.96609375,15.4575 6.04546875,16.25 8.12421875,16.25 C10.2042187,16.25 12.2829687,15.4575 13.8698437,13.87 C17.0429687,10.6975 17.0429687,5.55375 13.8698437,2.38 C12.2829687,0.79375 10.2042187,0 8.12421875,0 M8.12421875,2.5 C9.62609375,2.5 11.0398438,3.085625 12.1017188,4.148125 C14.2948438,6.340625 14.2954688,9.909375 12.1017188,12.103125 C11.0398438,13.165 9.62609375,13.75 8.12421875,13.75 C6.62234375,13.75 5.20984375,13.165 4.14734375,12.103125 C3.08484375,11.04 2.49984375,9.6275 2.49984375,8.125 C2.49984375,6.6225 3.08484375,5.21 4.14796875,4.148125 C5.20984375,3.085 6.62171875,2.5 8.12421875,2.5" id="Fill-1"></path>
                    <polygon id="Fill-3" points="19.9992188 17.7911875 17.7892188 19.9999375 12.0873438 14.2980625 13.1135938 13.1155625 14.1248438 11.9168125"></polygon>
                </g>
            </g>
        </g>
    </g>
</svg>